<svg xmlns="http://www.w3.org/2000/svg" width="512" height="512" viewBox="0 0 512 512">
  <title>burnbar</title>
  <defs>
    <clipPath id="flame">
      <path d="M262 62C300 120 392 196 392 300c0 78-60 136-136 136S120 378 120 300c0-56 30-100 66-130-2 40 14 70 40 84C222 172 236 110 262 62z"/>
    </clipPath>
  </defs>
  <rect width="512" height="512" rx="112" fill="#1b1d22"/>
  <!-- a flame cut into the strip's bands: green at the base, burning red at the tip -->
  <g clip-path="url(#flame)">
    <rect x="100" y="372" width="312" height="70" fill="#2fbf4a"/>
    <rect x="100" y="296" width="312" height="66" fill="#9acb25"/>
    <rect x="100" y="220" width="312" height="66" fill="#e6c21e"/>
    <rect x="100" y="144" width="312" height="66" fill="#f08a1c"/>
    <rect x="100" y="60"  width="312" height="74" fill="#e8402a"/>
  </g>
</svg>
